<?xml version="1.0" standalone="no"?>
<!DOCTYPE svg PUBLIC "-//W3C//DTD SVG 20010904//EN"
 "http://www.w3.org/TR/2001/REC-SVG-20010904/DTD/svg10.dtd">
<svg version="1.0" xmlns="http://www.w3.org/2000/svg"
 width="500.000000pt" height="500.000000pt" viewBox="0 0 500.000000 500.000000"
 preserveAspectRatio="xMidYMid meet">

<g transform="translate(0.000000,500.000000) scale(0.100000,-0.100000)"
fill="#000000" stroke="none">
<path d="M2067 3523 c-4 -3 -7 -24 -7 -45 0 -36 -1 -38 -32 -38 -82 0 -158
-44 -184 -107 -8 -18 -14 -67 -14 -113 l0 -80 598 0 c452 0 601 -3 610 -12 19
-19 16 133 -4 180 -31 76 -89 118 -178 128 -55 7 -56 8 -56 38 0 44 -12 58
-46 54 -26 -3 -29 -7 -32 -45 l-3 -43 -125 0 -124 0 0 33 c0 45 -12 59 -46 55
-26 -3 -29 -7 -32 -45 l-3 -43 -125 0 -124 0 0 33 c0 18 -5 38 -12 45 -13 13
-50 16 -61 5z"/>
<path d="M1810 2083 c-73 -38 -100 -124 -60 -190 25 -42 68 -63 127 -63 65 0
80 11 65 44 -10 22 -15 24 -35 17 -34 -13 -75 -2 -97 27 -23 28 -24 41 -9 76
15 32 59 50 103 42 29 -6 35 -3 41 15 9 29 -5 40 -57 46 -29 3 -54 -2 -78 -14z"/>
<path d="M3195 2086 c-106 -47 -118 -178 -22 -236 34 -21 120 -27 146 -11 12
8 13 14 3 35 -10 22 -15 24 -35 17 -34 -13 -75 -2 -97 27 -25 31 -25 63 -1 93
16 20 29 24 71 24 40 0 54 4 62 18 6 11 6 23 1 28 -16 16 -97 20 -128 5z"/>
<path d="M1390 2065 c0 -21 5 -25 30 -25 l30 0 0 -105 0 -105 30 0 30 0 0 104
0 105 33 3 c24 2 33 8 35 26 3 21 1 22 -92 22 -96 0 -96 0 -96 -25z"/>
<path d="M1620 1960 l0 -130 30 0 30 0 0 130 0 130 -30 0 -30 0 0 -130z"/>
<path d="M2000 1960 l0 -130 30 0 c28 0 29 1 32 56 l3 55 45 -55 c42 -51 48
-55 89 -56 l43 0 -62 70 -62 70 51 57 50 58 -34 3 c-36 3 -34 5 -106 -81 -18
-22 -18 -22 -19 31 0 51 -1 52 -30 52 l-30 0 0 -130z"/>
<path d="M2364 2068 c2 -18 11 -24 34 -26 l32 -3 0 -105 0 -104 30 0 30 0 0
105 0 105 30 0 c25 0 30 4 30 25 0 25 0 25 -95 25 -93 0 -95 -1 -91 -22z"/>
<path d="M2590 1960 l0 -130 29 0 c29 0 30 2 33 52 l3 52 40 -52 c35 -47 43
-52 78 -52 l39 0 -46 54 -46 54 25 16 c20 13 25 25 25 61 0 60 -23 75 -112 75
l-68 0 0 -130z m104 77 c26 -19 17 -51 -17 -55 -24 -3 -27 0 -27 26 0 43 13
52 44 29z"/>
<path d="M2911 2068 c-5 -13 -27 -69 -50 -126 -23 -56 -41 -105 -41 -107 0 -3
14 -5 30 -5 23 0 33 6 40 25 8 22 15 25 60 25 45 0 52 -3 60 -25 7 -19 17 -25
40 -25 37 0 38 -10 -24 146 -42 103 -46 109 -75 112 -25 3 -33 -1 -40 -20z
m58 -98 c10 -29 9 -30 -19 -30 -27 0 -28 1 -17 30 6 17 14 30 18 30 4 0 12
-13 18 -30z"/>
<path d="M3380 1960 l0 -130 30 0 c30 0 30 0 30 56 l0 56 47 -56 c45 -53 50
-56 92 -56 l45 0 -40 43 c-22 23 -50 54 -63 69 l-24 28 52 60 52 60 -38 0
c-34 0 -43 -6 -78 -50 l-40 -51 -3 51 c-3 48 -4 50 -33 50 l-29 0 0 -130z"/>
<path d="M1041 1633 c1 -32 4 -46 6 -31 3 20 11 28 31 30 21 2 27 8 27 28 0
21 -5 26 -32 28 l-33 3 1 -58z m57 25 c3 -13 -3 -18 -22 -18 -20 0 -26 5 -26
21 0 15 5 20 22 17 13 -2 24 -11 26 -20z"/>
<path d="M1182 1638 c-2 -57 -2 -58 26 -57 22 1 23 2 5 6 -19 4 -23 12 -26 56
l-3 52 -2 -57z"/>
<path d="M1316 1659 c-7 -19 -17 -45 -20 -59 -7 -23 -6 -24 6 -5 7 11 13 25
14 32 1 6 6 19 12 29 9 16 10 16 16 -4 4 -12 5 -25 3 -29 -2 -5 4 -17 14 -27
19 -19 19 -18 3 30 -23 68 -31 73 -48 33z"/>
<path d="M1452 1633 l1 -58 6 44 6 45 28 -42 c15 -23 29 -42 32 -42 3 0 4 26
3 58 l-1 57 -6 -45 -6 -45 -28 43 c-15 23 -29 42 -32 42 -3 0 -4 -26 -3 -57z"/>
<path d="M1772 1683 c13 -3 18 -18 21 -56 l3 -52 2 52 c2 40 6 53 20 56 9 3
-1 5 -23 5 -22 0 -32 -2 -23 -5z"/>
<path d="M1901 1633 c0 -32 3 -51 6 -43 2 8 7 22 10 30 3 11 11 8 30 -15 17
-21 21 -23 14 -8 -9 17 -8 27 0 41 18 29 4 52 -31 52 l-30 0 1 -57z m57 25 c3
-13 -3 -18 -22 -18 -20 0 -26 5 -26 21 0 15 5 20 22 17 13 -2 24 -11 26 -20z"/>
<path d="M2057 1643 c-9 -27 -17 -52 -17 -58 1 -15 24 27 27 50 6 37 21 38 28
2 4 -20 14 -42 22 -48 10 -9 8 2 -6 40 -12 28 -21 54 -21 56 0 3 -4 5 -8 5 -4
0 -16 -21 -25 -47z"/>
<path d="M2203 1664 c-15 -24 -15 -29 -2 -53 18 -31 60 -39 80 -15 13 16 12
16 -8 6 -32 -17 -51 -15 -64 9 -25 47 31 92 71 57 12 -11 12 -10 1 5 -20 26
-58 21 -78 -9z"/>
<path d="M2360 1635 c0 -30 4 -55 9 -55 6 0 8 9 6 20 -2 11 0 20 4 20 4 0 16
-9 26 -20 10 -11 23 -20 28 -20 6 0 -2 13 -17 29 -17 18 -24 31 -17 35 6 4 16
17 22 29 l12 22 -25 -22 c-30 -28 -41 -29 -33 -3 4 11 2 20 -4 20 -7 0 -11
-23 -11 -55z"/>
<path d="M2616 1659 c-7 -19 -17 -45 -20 -59 -7 -23 -6 -24 6 -5 7 11 13 25
14 32 1 6 6 19 12 29 9 15 12 12 21 -24 6 -22 17 -44 23 -48 8 -5 9 -1 4 12
-5 10 -13 33 -18 49 -17 48 -26 51 -42 14z"/>
<path d="M2752 1633 l1 -58 6 44 6 45 28 -42 c15 -23 29 -42 32 -42 3 0 4 26
3 58 l-1 57 -6 -45 -6 -45 -29 43 c-16 23 -30 42 -32 42 -2 0 -3 -26 -2 -57z"/>
<path d="M2900 1635 c0 -52 1 -55 26 -55 44 0 64 17 64 55 0 38 -20 55 -64 55
-25 0 -26 -3 -26 -55z m68 33 c29 -29 3 -84 -35 -76 -13 2 -18 13 -19 38 0 19
1 38 3 43 6 11 38 8 51 -5z"/>
<path d="M3152 1683 c13 -3 18 -18 21 -56 l3 -52 2 52 c2 40 6 53 20 56 9 3
-1 5 -23 5 -22 0 -32 -2 -23 -5z"/>
<path d="M3283 1635 c0 -33 2 -45 4 -27 2 18 2 45 0 60 -2 15 -4 0 -4 -33z"/>
<path d="M3377 1672 c-21 -23 -21 -41 -1 -70 18 -26 56 -29 75 -5 13 15 12 15
-9 4 -45 -24 -86 14 -62 59 12 22 49 27 70 8 12 -11 12 -10 1 5 -17 22 -54 22
-74 -1z"/>
<path d="M3530 1635 c0 -30 5 -55 10 -55 6 0 10 10 10 22 l0 21 23 -21 c34
-32 45 -27 14 6 -27 29 -27 29 -7 47 11 10 20 23 20 28 0 6 -10 1 -23 -11 -29
-27 -40 -28 -32 -2 4 11 2 20 -4 20 -7 0 -11 -23 -11 -55z"/>
<path d="M3776 1674 c-37 -37 -1 -103 49 -90 14 4 31 17 37 31 23 52 -46 100
-86 59z m73 -12 c23 -44 -28 -92 -64 -62 -18 15 -20 51 -3 68 18 18 56 14 67
-6z"/>
<path d="M3930 1635 c0 -30 4 -55 9 -55 4 0 7 11 6 25 -3 20 1 25 18 26 17 1
18 2 5 6 -26 7 -22 41 5 46 16 3 13 5 -10 6 l-33 1 0 -55z"/>
<path d="M4061 1633 c1 -32 4 -46 6 -31 3 18 12 28 26 31 l22 4 -22 2 c-35 2
-31 39 5 44 25 4 25 4 -5 6 l-33 1 1 -57z"/>
</g>
</svg>
